<?xml version="1.0" encoding="utf-8"?>
<!-- Generator: Adobe Illustrator 18.1.0, SVG Export Plug-In . SVG Version: 6.00 Build 0)  -->
<!DOCTYPE svg PUBLIC "-//W3C//DTD SVG 1.1//EN" "http://www.w3.org/Graphics/SVG/1.1/DTD/svg11.dtd">
<svg version="1.1" id="Layer_1" xmlns="http://www.w3.org/2000/svg" xmlns:xlink="http://www.w3.org/1999/xlink" x="0px" y="0px"
	 viewBox="0 0 48 48" enable-background="new 0 0 48 48" xml:space="preserve">
<path fill="#FFFFFF" d="M39.3,34.1v-4.8c2.6-1.5,4.4-4.3,4.4-7.5c0-4.8-3.9-8.7-8.7-8.7c-1.7,0-3.4,0.5-4.7,1.4
	C28.8,8.7,23.7,4.4,17.5,4.4c-7.2,0-13.1,5.9-13.1,13.1c0,3.9,1.7,7.3,4.4,9.7v5.4C3.5,29.5,0,23.9,0,17.5C0,7.8,7.8,0,17.5,0
	C24,0,29.7,3.6,32.7,8.9c0.7-0.1,1.5-0.2,2.2-0.2c7.2,0,13.1,5.9,13.1,13.1C48,27.5,44.3,32.4,39.3,34.1z"/>
<path fill="#5072FF" d="M15.3,21.8c1.2,0,2.2,1,2.2,2.2v4.4c0,1.2-1,2.2-2.2,2.2c-1.2,0-2.2-1-2.2-2.2V24
	C13.1,22.8,14.1,21.8,15.3,21.8z"/>
<path fill="#5072FF" d="M15.3,34.9c1.2,0,2.2,1,2.2,2.2v4.4c0,1.2-1,2.2-2.2,2.2c-1.2,0-2.2-1-2.2-2.2v-4.4
	C13.1,35.9,14.1,34.9,15.3,34.9z"/>
<path fill="#5072FF" d="M24,26.2c1.2,0,2.2,1,2.2,2.2v4.4c0,1.2-1,2.2-2.2,2.2c-1.2,0-2.2-1-2.2-2.2v-4.4
	C21.8,27.2,22.8,26.2,24,26.2z"/>
<path fill="#5072FF" d="M24,39.3c1.2,0,2.2,1,2.2,2.2v4.4c0,1.2-1,2.2-2.2,2.2c-1.2,0-2.2-1-2.2-2.2v-4.4
	C21.8,40.2,22.8,39.3,24,39.3z"/>
<path fill="#5072FF" d="M32.7,21.8c1.2,0,2.2,1,2.2,2.2v4.4c0,1.2-1,2.2-2.2,2.2c-1.2,0-2.2-1-2.2-2.2V24
	C30.5,22.8,31.5,21.8,32.7,21.8z"/>
<path fill="#5072FF" d="M32.7,34.9c1.2,0,2.2,1,2.2,2.2v4.4c0,1.2-1,2.2-2.2,2.2c-1.2,0-2.2-1-2.2-2.2v-4.4
	C30.5,35.9,31.5,34.9,32.7,34.9z"/>
</svg>
