<?xml version="1.0" encoding="utf-8"?>
<!-- Generator: Adobe Illustrator 18.1.0, SVG Export Plug-In . SVG Version: 6.00 Build 0)  -->
<!DOCTYPE svg PUBLIC "-//W3C//DTD SVG 1.1//EN" "http://www.w3.org/Graphics/SVG/1.1/DTD/svg11.dtd">
<svg version="1.1" id="Layer_1" xmlns="http://www.w3.org/2000/svg" xmlns:xlink="http://www.w3.org/1999/xlink" x="0px" y="0px"
	 viewBox="0 0 48 48" enable-background="new 0 0 48 48" xml:space="preserve">
<path fill="#FFF200" d="M46,26h-4c-1.1,0-2-0.9-2-2s0.9-2,2-2h4c1.1,0,2,0.9,2,2S47.1,26,46,26z M38.1,12.7c-0.8,0.8-2,0.8-2.8,0
	c-0.8-0.8-0.8-2,0-2.8L38.1,7c0.8-0.8,2-0.8,2.8,0c0.8,0.8,0.8,2,0,2.8L38.1,12.7z M24,36c-6.6,0-12-5.4-12-12c0-6.6,5.4-12,12-12
	c6.6,0,12,5.4,12,12C36,30.6,30.6,36,24,36z M24,16c-4.4,0-8,3.6-8,8c0,4.4,3.6,8,8,8s8-3.6,8-8C32,19.6,28.4,16,24,16z M24,8
	c-1.1,0-2-0.9-2-2V2c0-1.1,0.9-2,2-2c1.1,0,2,0.9,2,2v4C26,7.1,25.1,8,24,8z M9.9,12.7L7,9.9C6.3,9.1,6.3,7.8,7,7s2-0.8,2.8,0
	l2.8,2.8c0.8,0.8,0.8,2,0,2.8S10.6,13.5,9.9,12.7z M8,24c0,1.1-0.9,2-2,2H2c-1.1,0-2-0.9-2-2s0.9-2,2-2h4C7.1,22,8,22.9,8,24z
	 M9.9,35.3c0.8-0.8,2-0.8,2.8,0c0.8,0.8,0.8,2,0,2.8L9.9,41c-0.8,0.8-2,0.8-2.8,0c-0.8-0.8-0.8-2,0-2.8L9.9,35.3z M24,40
	c1.1,0,2,0.9,2,2v4c0,1.1-0.9,2-2,2c-1.1,0-2-0.9-2-2v-4C22,40.9,22.9,40,24,40z M38.1,35.3l2.8,2.8c0.8,0.8,0.8,2,0,2.8
	c-0.8,0.8-2,0.8-2.8,0l-2.8-2.8c-0.8-0.8-0.8-2,0-2.8C36.1,34.5,37.4,34.5,38.1,35.3z"/>
</svg>
